inDegrees=no
num_controls=7
num_derivatives=13
num_iterations=111
num_multipliers=7
num_parameters=0
num_slacks=7
num_states=26
objective=5.666297
objective_accelerations=0.641025
objective_balance=0.050425
objective_effort=0.514941
objective_height=4.377538
objective_ligament=0.082369
solver_duration=1331.612016
status=Solve_Succeeded
success=true
DataType=double
version=3
OpenSimVersion=4.4-2022-07-23-0e9fedc
endheader
time	/jointset/ground_pelvis/pelvis_tilt/value	/jointset/ground_pelvis/pelvis_tx/value	/jointset/ground_pelvis/pelvis_ty/value	/jointset/hip_l/hip_flexion_l/value	/jointset/hip_l/hip_adduction_l/value	/jointset/hip_l/hip_rotation_l/value	/jointset/back/lumbar_extension/value	/jointset/patellofemoral_l/patellar_flexion_l/value	/jointset/knee_l/knee_flexion_l/value	/jointset/knee_l/knee_adduction_l/value	/jointset/knee_l/knee_rotation_l/value	/jointset/ankle_l/ankle_angle_l/value	/jointset/subtalar_l/subtalar_angle_l/value	/jointset/ground_pelvis/pelvis_tilt/speed	/jointset/ground_pelvis/pelvis_tx/speed	/jointset/ground_pelvis/pelvis_ty/speed	/jointset/hip_l/hip_flexion_l/speed	/jointset/hip_l/hip_adduction_l/speed	/jointset/hip_l/hip_rotation_l/speed	/jointset/back/lumbar_extension/speed	/jointset/patellofemoral_l/patellar_flexion_l/speed	/jointset/knee_l/knee_flexion_l/speed	/jointset/knee_l/knee_adduction_l/speed	/jointset/knee_l/knee_rotation_l/speed	/jointset/ankle_l/ankle_angle_l/speed	/jointset/subtalar_l/subtalar_angle_l/speed	/forceset/tau_hip_flexion_l	/forceset/tau_hip_adduction_l	/forceset/tau_hip_rotation_l	/forceset/tau_knee_flexion_l	/forceset/tau_ankle_angle_l	/forceset/tau_subtalar_angle_l	/forceset/tau_lumbar_extension	lambda_cid13_p0	lambda_cid13_p1	lambda_cid13_p2	lambda_cid13_p3	lambda_cid13_p4	lambda_cid13_p5	lambda_cid14_p0	/jointset/ground_pelvis/pelvis_tilt/accel	/jointset/ground_pelvis/pelvis_tx/accel	/jointset/ground_pelvis/pelvis_ty/accel	/jointset/hip_l/hip_flexion_l/accel	/jointset/hip_l/hip_adduction_l/accel	/jointset/hip_l/hip_rotation_l/accel	/jointset/back/lumbar_extension/accel	/jointset/patellofemoral_l/patellar_flexion_l/accel	/jointset/knee_l/knee_flexion_l/accel	/jointset/knee_l/knee_adduction_l/accel	/jointset/knee_l/knee_rotation_l/accel	/jointset/ankle_l/ankle_angle_l/accel	/jointset/subtalar_l/subtalar_angle_l/accel	gamma_cid13_p0	gamma_cid13_p1	gamma_cid13_p2	gamma_cid13_p3	gamma_cid13_p4	gamma_cid13_p5	gamma_cid14_p0
1	-0.7655416468046042	-0.1908130668606003	0.574253269014887	2.094390122471169	-0.3090677578535447	0.09152336264981042	-0.4363057905045614	1.098689626291391	1.098689626290925	-0.1744188327419196	0.1744960889442203	-0.04976641033147644	-0.0701902685772812	-0.01129766596837078	0.0002975454782142502	-0.002891629858800626	0.01636619621469203	0.0004605511738506879	0.002532004454964645	0.0003059998912253916	0.006445299720752172	0.006445299720742688	1.806940554331646e-06	-2.575933300813119e-05	0.00187746326876939	0.0007404046363071068	-0.4971447585881852	-0.002900666876652511	-0.01812971685699017	-0.2138684795364556	0.242872101113995	0.02808533462084965	0.384182946757294	30.14152931002107	-17.30731904669141	2.165281415071207	-0.007867532160753372	-737.036221499755	-38.03852857524981	-3.899540295635864	2.295771647058934	0.4487231758969323	1.767015105020034	-6.799040060566548	-0.2323357393478913	-1.54611680039929	-0.03858515038545208	-4.225195642702012	-4.22519564270218	-0.02987412335394605	0.01097717423425014	0.04185316605327203	-0.1695160937707584	5.365296412511653e-10	1.677454280704586e-09	-2.923143742411665e-09	-1.719647552198343e-10	7.630150380024531e-10	-1.973082767731777e-09	7.779871281312013e-10
1.01	-0.765540906005025	-0.1907877501077824	0.5743125863720298	2.094215010327046	-0.3090739822770731	0.09147086337003534	-0.4363034876622603	1.098542781983851	1.098542781983852	-0.1744186951009655	0.1744958005207104	-0.04974547974956629	-0.07019056216157325	0.01143350070843039	0.00476702703839593	0.01475254441386201	-0.05137535696897688	-0.001703889111582342	-0.0130300114849976	0.0001692614801331694	-0.03581656595085329	-0.03581656595085841	2.432052834798774e-05	-3.325760014594121e-05	0.002305271922817488	-0.000798266883481203	-0.4970084804524487	-0.002880833557527351	-0.0181390238743963	-0.2139031351782579	0.2429512136258026	0.02809557128125376	0.3841155220740989	30.17362346037666	-17.31859073908117	2.168456356605948	-0.06595904199965449	-736.9554059716082	-38.06542412151577	-3.905792479821147	2.25994004584613	0.4462441827240344	1.762734234210123	-6.759723182662481	-0.2082670739580277	-1.560969702091363	0.0009857469479264669	-4.227042039368079	-4.227042039366892	0.01810266381195356	-0.006816765482882551	0.04273777289287477	-0.1459153565968364	-2.085207537900711e-09	-4.66876595790506e-09	1.358342739713124e-08	1.203127585791694e-09	-4.067403679641598e-09	1.705773171059407e-08	-3.448638467008909e-09
1.02	-0.7653132233651226	-0.1907177018320308	0.5745482686010618	2.093362880603982	-0.3091018048836221	0.09126279878852302	-0.4363021114172067	1.097973247017612	1.097973247018082	-0.1744183746113377	0.1744953964269851	-0.04972037246955355	-0.0702062169961665	0.03409070209937515	0.009243850064968801	0.03238134451928459	-0.1190373195684244	-0.00385908542966394	-0.02858105587683788	0.0001206804057913243	-0.07809283202160495	-0.07809283202160669	3.837667478095196e-05	-4.889339906749617e-05	0.002712802889352875	-0.00233184542384083	-0.4968722023167271	-0.00286100023852025	-0.01814833089286012	-0.2139377908200269	0.2430303261375502	0.02810580794153276	0.3840480973909076	30.20269756757974	-17.330575796098	2.173164143291279	-0.137542798988346	-736.9271189768084	-38.07186924552448	-3.930038540162325	2.280978589887459	0.4501914691752771	1.763940271572047	-6.783121943722231	-0.2304869458777598	-1.543922490775094	-0.02095368303557514	-4.228075722531159	-4.228075722531523	-0.03156561162615033	0.009349667877822265	0.03779762855090088	-0.1684974978851419	-3.497016309268613e-09	-1.122375400888823e-08	2.979222319441125e-08	-6.065868492401495e-10	-8.084041542647831e-09	3.624865089830425e-08	-7.876252062037613e-09
1.03	-0.7648590603413348	-0.1906027930470833	0.5749601333672765	2.091834372062617	-0.3091511017930407	0.09089931675753943	-0.4363010100769659	1.096981016353804	1.096981016354057	-0.1744179535244815	0.1744948334732831	-0.04969126904372115	-0.07023714881696262	0.05675711711311919	0.01374465205003888	0.04998621949095024	-0.1866666681627434	-0.005995017816589349	-0.04411028170136978	9.16063983691455e-05	-0.1203419012354951	-0.1203419012354954	4.604724038770286e-05	-6.155196202767605e-05	0.00310690104075228	-0.003849724718704517	-0.4964715301302988	-0.002754198772084822	-0.01817233915507369	-0.213947942361974	0.2430855677667125	0.02817445623477233	0.3838462039407917	30.23900047734045	-17.37045055244335	2.18375247751603	-0.2458178867437596	-736.6983248819853	-38.13655422528804	-3.972483649928696	2.26175370031524	0.4510358315011584	1.757950282413401	-6.753184926207812	-0.2043579094233529	-1.556672723432548	0.004918552673054042	-4.22161010680474	-4.221610106804079	0.01695978435037175	-0.006263983895674142	0.04006984269054018	-0.1427167161700291	-4.896478872393817e-09	-1.778087234367112e-08	4.599798046779062e-08	-2.448799312598985e-09	-1.209237551938224e-08	5.544120380753877e-08	-1.230591655502436e-08
1.04	-0.7641777770187543	-0.1904426739886171	0.5755478847176972	2.08962950131355	-0.3092216003311913	0.09038069244924143	-0.4363004389141004	1.095566637480665	1.095566637480678	-0.174417450453225	0.1744942058608347	-0.04965825384952161	-0.07028311614488415	0.07951476185466645	0.01828590476869447	0.06755866136066864	-0.2543097611138723	-0.008099411176437449	-0.05960951133152238	1.464488168706074e-05	-0.1625224738888581	-0.1625224738888549	5.477355384840628e-05	-6.182514548355185e-05	0.003495156562399156	-0.005338946848897121	-0.4960708579438282	-0.002647397305701737	-0.0181963474177729	-0.2139580939039152	0.2431408093958342	0.02824310452795414	0.3836443104907361	30.272242400663	-17.41106594499362	2.195917341922424	-0.3676092361689096	-736.5226314627336	-38.18117280333689	-4.033350906995146	2.299224535447886	0.458281615892538	1.757453651182638	-6.785870815084223	-0.2241791404625833	-1.537923251899648	-0.03053118488664307	-4.214376410425609	-4.214376410425551	-0.03135446205544084	0.01182674377928475	0.03662910260062772	-0.1627660649511617	-6.093062095329807e-09	-2.383953127692887e-08	6.187322208735445e-08	-4.569537983176825e-09	-1.554192483144297e-08	7.332026412774868e-08	-1.650681228777527e-08
1.05	-0.7632684489762742	-0.1902369204150914	0.5763111150493905	2.086748310390742	-0.3093129535741977	0.08970730425937386	-0.4363009790078661	1.093730934351149	1.093730934351117	-0.1744168816411721	0.1744936464054405	-0.04962143352134708	-0.07034381283443185	0.1023669743173842	0.02287345277025978	0.08507373391601745	-0.3219125149373386	-0.01016108356431277	-0.07505641835259429	-0.0001405678169580809	-0.2045926949048425	-0.2045926949048427	6.014091216351894e-05	-4.835786308608986e-05	0.003863812168881564	-0.006791826267292845	-0.4951123028027083	-0.002487181619195452	-0.018239382750299	-0.2140199106865179	0.2432435633640623	0.02834199395284797	0.3830812491643159	30.34675968137923	-17.47434150766043	2.214321088206298	-0.5320774149521648	-735.9447876629106	-38.28616052707125	-4.113057116417462	2.280636302097145	0.4602864564118534	1.746479569044925	-6.745094257621819	-0.1956440416526851	-1.546335467613041	-0.01070193871005261	-4.199522198400938	-4.199522198401101	0.01664766757170687	-0.003657497778460921	0.03622130040622043	-0.1352687308538228	-7.283305338884887e-09	-2.988261335388897e-08	7.773813509273655e-08	-6.698980597730257e-09	-1.897401212273265e-08	9.115827780455159e-08	-2.070055899676881e-08
1.06	-0.7621301154690466	-0.189985032348723	0.5772490852089039	2.083191568611653	-0.3094246200918201	0.08887979479123274	-0.4363036083534963	1.091475293561261	1.09147529356086	-0.1744162260889414	0.1744932687792197	-0.04958107913495759	-0.0704187822882774	0.1253158547965925	0.02751280333724834	0.1025066269248944	-0.3894199324264759	-0.01216206610030487	-0.09043376698975324	-0.0004032055698744469	-0.2465100059694777	-0.2465100059694819	7.212158235772953e-05	-2.545931062796286e-05	0.00420196820473051	-0.008193499708490495	-0.4941537476604481	-0.002326965932525088	-0.01828241808293142	-0.2140817274694389	0.2433463173320564	0.02844088337785971	0.3825181878392954	30.41815596643538	-17.53842183671947	2.234396833117497	-0.7102336156686248	-735.4209251416921	-38.37202714147286	-4.212027962927218	2.318558138745668	0.4686421289773171	1.741017741888286	-6.766803548218502	-0.2120411700861756	-1.524011575117439	-0.05201619573847875	-4.183794420155629	-4.183794420155719	-0.03003179967965321	0.01371299779195014	0.03052918847413045	-0.1525248695117463	-8.947681334897156e-09	-3.543636374789969e-08	9.200076812474206e-08	-7.255488381277086e-09	-2.222675375532283e-08	1.066868695359399e-07	-2.440384995262607e-08
